<?xml version="1.0" encoding="UTF-8"?>
<svg xmlns="http://www.w3.org/2000/svg" xmlns:xlink="http://www.w3.org/1999/xlink" width="259.98pt" height="156.72pt" viewBox="0 0 259.98 156.72" version="1.1">
<defs>
<clipPath id="clip1">
  <path d="M 246 58 L 259.980469 58 L 259.980469 101 L 246 101 Z M 246 58 "/>
</clipPath>
<clipPath id="clip2">
  <path d="M 42 126 L 64 126 L 64 156.71875 L 42 156.71875 Z M 42 126 "/>
</clipPath>
</defs>
<g id="surface1">
<path style=" stroke:none;fill-rule:nonzero;fill:rgb(25.498962%,25.099182%,25.898743%);fill-opacity:1;" d="M 107.148438 100.230469 L 99.0625 100.230469 L 99.0625 56.78125 L 107.148438 56.78125 L 107.148438 100.230469 "/>
<path style=" stroke:none;fill-rule:nonzero;fill:rgb(25.498962%,25.099182%,25.898743%);fill-opacity:1;" d="M 140.054688 100.230469 L 132.957031 100.230469 L 132.957031 79.613281 C 132.957031 75.316406 131.0625 73.003906 127.621094 72.738281 C 125.480469 72.570313 122.078125 73.078125 119.613281 73.628906 L 119.613281 100.230469 L 112.511719 100.230469 L 112.511719 68.578125 C 112.511719 68.578125 121.148438 66.652344 128.945313 66.660156 C 132.320313 66.664063 135.015625 67.863281 137.027344 69.882813 C 139.046875 71.902344 140.054688 74.714844 140.054688 78.320313 L 140.054688 100.230469 "/>
<path style=" stroke:none;fill-rule:nonzero;fill:rgb(25.498962%,25.099182%,25.898743%);fill-opacity:1;" d="M 179.214844 71.667969 C 179.214844 76.09375 177.84375 79.648438 175.109375 82.332031 C 172.367188 85.019531 168.652344 86.359375 163.964844 86.359375 L 154.136719 86.359375 L 154.136719 100.230469 L 146.183594 100.230469 L 146.183594 56.78125 L 163.4375 56.78125 C 168.519531 56.78125 172.421875 58.105469 175.140625 60.746094 C 177.855469 63.386719 179.214844 67.027344 179.214844 71.667969 M 170.867188 71.667969 C 170.867188 66.425781 168.304688 63.804688 163.179688 63.804688 L 154.136719 63.804688 L 154.136719 79.402344 L 163.042969 79.402344 C 165.5 79.402344 167.417969 78.726563 168.796875 77.371094 C 170.175781 76.019531 170.867188 74.117188 170.867188 71.667969 "/>
<path style=" stroke:none;fill-rule:nonzero;fill:rgb(25.498962%,25.099182%,25.898743%);fill-opacity:1;" d="M 212.003906 83.800781 C 212.003906 89 210.546875 93.1875 207.632813 96.367188 C 204.714844 99.546875 200.941406 101.132813 196.292969 101.132813 C 191.652344 101.132813 187.867188 99.546875 184.957031 96.367188 C 182.039063 93.1875 180.585938 89 180.585938 83.800781 C 180.585938 78.605469 182.039063 74.425781 184.957031 71.265625 C 187.867188 68.109375 191.652344 66.53125 196.292969 66.53125 C 200.980469 66.53125 204.773438 68.109375 207.664063 71.265625 C 210.558594 74.425781 212.003906 78.605469 212.003906 83.800781 M 204.578125 83.832031 C 204.578125 80.578125 203.820313 77.996094 202.3125 76.09375 C 200.796875 74.1875 198.792969 73.230469 196.292969 73.230469 C 193.796875 73.230469 191.789063 74.195313 190.277344 76.125 C 188.769531 78.050781 188.015625 80.621094 188.015625 83.832031 C 188.015625 87.085938 188.769531 89.667969 190.277344 91.574219 C 191.789063 93.480469 193.796875 94.433594 196.292969 94.433594 C 198.792969 94.433594 200.796875 93.480469 202.3125 91.574219 C 203.820313 89.667969 204.578125 87.085938 204.578125 83.832031 "/>
<path style=" stroke:none;fill-rule:nonzero;fill:rgb(25.498962%,25.099182%,25.898743%);fill-opacity:1;" d="M 242.886719 89.792969 C 242.886719 93.058594 241.613281 95.742188 239.070313 97.847656 C 236.53125 99.953125 233.179688 101.003906 229.019531 101.003906 C 222.53125 101.003906 217.515625 99.070313 213.964844 95.203125 L 219.417969 90.628906 C 222.136719 93.296875 225.3125 94.625 228.949219 94.625 C 230.96875 94.625 232.566406 94.230469 233.75 93.433594 C 234.933594 92.640625 235.523438 91.640625 235.523438 90.4375 C 235.523438 89.0625 234.84375 88.117188 233.488281 87.601563 C 232.699219 87.300781 230.597656 86.894531 227.175781 86.375 C 223.058594 85.777344 220.121094 84.875 218.367188 83.671875 C 216.308594 82.210938 215.28125 80.019531 215.28125 77.101563 C 215.28125 74.136719 216.527344 71.65625 219.023438 69.65625 C 221.523438 67.660156 224.855469 66.65625 229.019531 66.65625 C 234.054688 66.65625 238.351563 68.3125 241.898438 71.621094 L 237.628906 76.132813 C 235.042969 73.855469 232.105469 72.714844 228.816406 72.714844 C 224.609375 72.714844 222.511719 73.898438 222.511719 76.261719 C 222.511719 77.636719 223.472656 78.582031 225.402344 79.097656 C 228.117188 79.523438 230.8125 79.976563 233.488281 80.449219 C 239.753906 81.609375 242.886719 84.722656 242.886719 89.792969 "/>
<g clip-path="url(#clip1)" clip-rule="nonzero">
<path style=" stroke:none;fill-rule:nonzero;fill:rgb(25.498962%,25.099182%,25.898743%);fill-opacity:1;" d="M 259.855469 100.230469 C 258.671875 100.53125 257.445313 100.683594 256.175781 100.683594 C 252.121094 100.683594 249.441406 99.78125 248.140625 97.976563 C 247.097656 96.5625 246.578125 93.875 246.578125 89.921875 L 246.578125 58.070313 L 253.679688 58.070313 L 253.679688 67.433594 L 259.980469 67.433594 L 259.980469 73.230469 L 253.679688 73.230469 L 253.679688 89.46875 C 253.679688 91.363281 253.917969 92.609375 254.398438 93.210938 C 254.96875 93.980469 256.175781 94.367188 258.015625 94.367188 C 258.542969 94.367188 259.152344 94.328125 259.855469 94.242188 L 259.855469 100.230469 "/>
</g>
<path style=" stroke:none;fill-rule:nonzero;fill:rgb(100%,79.598999%,1.599121%);fill-opacity:1;" d="M 37.621094 78.453125 C 37.621094 78.453125 29.199219 81.707031 18.808594 81.707031 C 8.421875 81.707031 0 78.453125 0 78.453125 C 0 78.453125 8.421875 75.195313 18.808594 75.195313 C 29.199219 75.195313 37.621094 78.453125 37.621094 78.453125 "/>
<path style=" stroke:none;fill-rule:nonzero;fill:rgb(100%,79.598999%,1.599121%);fill-opacity:1;" d="M 63.632813 30.574219 C 63.632813 30.574219 56.167969 25.550781 50.359375 17.105469 C 44.550781 8.660156 42.59375 -0.00390625 42.59375 -0.00390625 C 42.59375 -0.00390625 50.054688 5.023438 55.867188 13.464844 C 61.675781 21.910156 63.632813 30.574219 63.632813 30.574219 "/>
<path style=" stroke:none;fill-rule:nonzero;fill:rgb(100%,79.598999%,1.599121%);fill-opacity:1;" d="M 44.582031 51.234375 C 44.582031 51.234375 35.585938 50.230469 26.414063 45.449219 C 17.242188 40.667969 11.363281 33.917969 11.363281 33.917969 C 11.363281 33.917969 20.359375 34.921875 29.53125 39.703125 C 38.703125 44.484375 44.582031 51.234375 44.582031 51.234375 "/>
<path style=" stroke:none;fill-rule:nonzero;fill:rgb(100%,79.598999%,1.599121%);fill-opacity:1;" d="M 62.347656 92.980469 C 67.792969 91.328125 72.402344 88.917969 72.402344 88.917969 C 72.402344 88.917969 59.578125 85.351563 60.519531 71.960938 C 63.464844 49.980469 81.257813 32.722656 103.535156 29.945313 C 101.171875 29.621094 98.761719 29.449219 96.304688 29.460938 C 68.75 29.582031 46.511719 51.582031 46.636719 78.597656 C 46.757813 105.609375 69.199219 127.410156 96.753906 127.289063 C 99.050781 127.28125 101.308594 127.105469 103.523438 126.800781 C 83.96875 124.355469 68.058594 110.839844 62.347656 92.980469 "/>
<g clip-path="url(#clip2)" clip-rule="nonzero">
<path style=" stroke:none;fill-rule:nonzero;fill:rgb(100%,79.598999%,1.599121%);fill-opacity:1;" d="M 63.632813 126.140625 C 63.632813 126.140625 56.167969 131.167969 50.359375 139.613281 C 44.550781 148.054688 42.59375 156.71875 42.59375 156.71875 C 42.59375 156.71875 50.054688 151.695313 55.867188 143.25 C 61.675781 134.808594 63.632813 126.140625 63.632813 126.140625 "/>
</g>
<path style=" stroke:none;fill-rule:nonzero;fill:rgb(100%,79.598999%,1.599121%);fill-opacity:1;" d="M 44.582031 105.484375 C 44.582031 105.484375 35.585938 106.484375 26.414063 111.269531 C 17.242188 116.046875 11.363281 122.796875 11.363281 122.796875 C 11.363281 122.796875 20.359375 121.796875 29.53125 117.015625 C 38.703125 112.234375 44.582031 105.484375 44.582031 105.484375 "/>
</g>
</svg>
